<svg xmlns="http://www.w3.org/2000/svg" width="32" height="32" version="1" viewBox="0 0 32 32"><path fill="#5dc560" fill-rule="evenodd" d="M 32,16 C 32,24.823921 24.82392,32 16,32 7.17608,32 0,24.823921 0,16 0,7.1760799 7.17608,2e-7 16,2e-7 24.877076,2e-7 32,7.1760799 32,16 l 0,0 z" clip-rule="evenodd"/><path fill="#43ab27" d="M 17.173828 31.880859 C 17.86197 31.829827 18.55931 31.809485 19.220703 31.673828 C 20.261401 31.460373 21.265846 31.14555 22.222656 30.740234 C 23.179467 30.334919 24.088124 29.839253 24.939453 29.263672 C 25.790782 28.688091 26.584341 28.032846 27.308594 27.308594 C 28.032846 26.584341 28.68809 25.790782 29.263672 24.939453 C 29.839253 24.088124 30.334919 23.179467 30.740234 22.222656 C 31.14555 21.265846 31.460373 20.261401 31.673828 19.220703 C 31.749679 18.850896 31.739286 18.454724 31.789062 18.076172 L 23.335938 9.6210938 C 22.786623 9.0717785 22.022977 8.7363281 21.169922 8.7363281 L 20.859375 8.7363281 C 19.502243 8.8720415 18.422635 9.8779684 18.173828 11.201172 C 18.138284 11.390201 18.119141 11.586771 18.119141 11.787109 C 18.119141 12.008057 18.148227 12.222623 18.195312 12.431641 L 17.550781 11.787109 L 9.0722656 11.787109 L 9.0722656 11.890625 C 8.4001624 11.890625 7.7792969 12.458756 7.7792969 13.130859 L 7.7792969 17.060547 L 8.2128906 17.494141 C 8.0858243 17.5528 7.9595107 17.609354 7.8320312 17.679688 L 7.8320312 22.023438 C 7.8320312 22.189494 7.8650498 22.341881 7.9199219 22.482422 C 7.9239251 22.492675 7.9254207 22.503576 7.9296875 22.513672 C 7.9443194 22.548328 7.9725991 22.572739 7.9902344 22.605469 C 8.0451187 22.707324 8.1007905 22.809775 8.1816406 22.890625 L 8.2070312 22.914062 L 17.173828 31.880859 z M 20.525391 14.761719 C 20.733784 14.808663 20.947708 14.835788 21.167969 14.835938 L 21.169922 14.835938 L 21.683594 15.351562 C 21.643862 15.356318 21.60904 15.367627 21.568359 15.371094 C 21.42863 15.383045 21.275418 15.36718 21.126953 15.363281 L 20.525391 14.761719 z "/><path fill="#fff" d="m 20.859823,8.7361151 c -1.551008,0.155101 -2.740113,1.4476069 -2.740113,3.0503149 0,1.654407 1.395907,3.050314 3.050314,3.050314 1.654409,0 3.050315,-1.344207 3.050315,-3.050314 0,-1.706109 -1.344206,-3.0503149 -3.050315,-3.0503149 -0.1034,0 -0.2068,0 -0.310201,0 l 0,0 z m 0.206801,1.137405 c 0,0 0,0 0,0 0.1034,0 0.155101,0 0.258502,0.0517 0.05171,0.0517 0.05171,0.0517 0.103399,0.1033999 l 1.085706,1.757808 c 0.103401,0.155101 -0.05171,0.361902 -0.206801,0.361902 l -0.827205,0 0,1.344206 c 0,0.155102 -0.1034,0.258502 -0.2585,0.258502 -0.155101,0 -0.258501,-0.155101 -0.258501,-0.258502 l 0,-1.344206 -0.775504,0 c -0.155101,0 -0.310202,-0.206801 -0.206801,-0.361901 l 1.085705,-1.8095089 c 0,-0.0517 0,-0.0517 0.05171,-0.0517 -0.1034,-0.0517 -0.1034,-0.0517 -0.05171,-0.0517 l 0,0 z M 9.0721658,11.88983 c -0.6721032,0 -1.2925053,0.568703 -1.2925053,1.240806 l 0,3.929219 c 1.4993068,-0.723804 3.1020145,-0.775504 4.0326195,-0.361902 0.982305,0.413602 1.706108,1.189105 2.378211,1.912909 0.05171,0 0.05171,-0.0517 0.103401,-0.0517 0.775503,-0.568704 1.654408,-1.344207 2.533312,-1.96461 0.878904,-0.620403 1.861209,-1.085706 2.895213,-1.085706 0.930605,0 2.171411,0.465303 3.153716,1.447608 l 0,-2.06801 c -1.034006,1.034005 -5.325126,0.672103 -5.325126,-3.102014 l -8.4788412,0 z m 5.9972292,1.602707 c 0.723803,0 1.292507,0.568703 1.292507,1.292506 0,0.723805 -0.568704,1.292507 -1.292507,1.292507 -0.723803,0 -1.292505,-0.568702 -1.292505,-1.292507 0,-0.723803 0.568702,-1.292506 1.292505,-1.292506 l 0,0 z m 0,0.517003 c -0.465301,0 -0.775503,0.361902 -0.775503,0.775503 0,0.413603 0.361902,0.775505 0.775503,0.775505 0.413602,0 0.775504,-0.361902 0.775504,-0.775505 0,-0.465301 -0.361902,-0.775503 -0.775504,-0.775503 l 0,0 z m 4.653022,2.11971 c -0.878903,0 -1.706107,0.413602 -2.585011,0.982305 -0.878904,0.568703 -1.706109,1.344206 -2.533312,1.964609 -0.827204,0.568704 -1.654409,1.085705 -2.481612,1.085705 -0.155101,0 -0.258502,-0.1034 -0.258502,-0.2585 0,-0.155101 0.103401,-0.258501 0.258502,-0.258501 0.465301,0 1.034004,-0.258502 1.654408,-0.672104 -0.672103,-0.723804 -1.292507,-1.395907 -2.119711,-1.757809 -0.827205,-0.361901 -2.3265115,-0.361901 -3.8258183,0.465303 l 0,4.34282 c 0,0.723804 0.568702,1.240807 1.2925052,1.240807 l 12.5631611,0 c 0.672103,0 1.292507,-0.568703 1.292507,-1.240807 l 0,-4.29112 c -0.05171,0 -0.103401,0 -0.155101,-0.0517 -1.034006,-1.137406 -2.274811,-1.551007 -3.102016,-1.551007 l 0,0 z"/></svg>